<svg width="18" height="14" viewBox="0 0 18 14" fill="none" xmlns="http://www.w3.org/2000/svg">
<path d="M15.6667 6.9732H17.3334V8.7232H15.6667C14.5167 8.7232 13.3834 8.41695 12.3334 7.8482C10.25 8.9857 7.75002 8.9857 5.66669 7.8482C4.61669 8.41695 3.47502 8.7232 2.33335 8.7232H0.666687V6.9732H2.33335C3.49169 6.9732 4.65002 6.56195 5.66669 5.80945C7.70002 7.3057 10.3 7.3057 12.3334 5.80945C13.35 6.56195 14.5084 6.9732 15.6667 6.9732ZM15.6667 1.7232H17.3334V3.4732H15.6667C14.5167 3.4732 13.3834 3.16695 12.3334 2.5982C10.25 3.7357 7.75002 3.7357 5.66669 2.5982C4.61669 3.16695 3.47502 3.4732 2.33335 3.4732H0.666687V1.7232H2.33335C3.49169 1.7232 4.65002 1.31195 5.66669 0.559448C7.70002 2.0557 10.3 2.0557 12.3334 0.559448C13.35 1.31195 14.5084 1.7232 15.6667 1.7232ZM15.6667 12.2232H17.3334V13.9732H15.6667C14.5167 13.9732 13.3834 13.6669 12.3334 13.0982C10.25 14.2357 7.75002 14.2357 5.66669 13.0982C4.61669 13.6669 3.47502 13.9732 2.33335 13.9732H0.666687V12.2232H2.33335C3.49169 12.2232 4.65002 11.8119 5.66669 11.0594C7.70002 12.5557 10.3 12.5557 12.3334 11.0594C13.35 11.8119 14.5084 12.2232 15.6667 12.2232Z" fill="#171E1D"/>
</svg>
