<svg width="36" height="37" viewBox="0 0 36 37" fill="none" xmlns="http://www.w3.org/2000/svg">
<rect y="0.473145" width="36" height="36" rx="6" fill="#00C29F"/>
<path d="M9.66669 11.4732C9.66669 11.0065 9.66669 10.7732 9.75751 10.5949C9.83741 10.4381 9.96489 10.3106 10.1217 10.2307C10.3 10.1399 10.5333 10.1399 11 10.1399H15C15.4667 10.1399 15.7001 10.1399 15.8783 10.2307C16.0351 10.3106 16.1626 10.4381 16.2425 10.5949C16.3334 10.7732 16.3334 11.0065 16.3334 11.4732V15.4732C16.3334 15.9399 16.3334 16.1733 16.2425 16.3516C16.1626 16.5084 16.0351 16.6358 15.8783 16.7157C15.7001 16.8066 15.4667 16.8066 15 16.8066H11C10.5333 16.8066 10.3 16.8066 10.1217 16.7157C9.96489 16.6358 9.83741 16.5084 9.75751 16.3516C9.66669 16.1733 9.66669 15.9399 9.66669 15.4732V11.4732Z" stroke="white" stroke-width="1.5"/>
<path d="M9.66669 21.4732C9.66669 21.0065 9.66669 20.7732 9.75751 20.5949C9.83741 20.4381 9.96489 20.3106 10.1217 20.2307C10.3 20.1399 10.5333 20.1399 11 20.1399H15C15.4667 20.1399 15.7001 20.1399 15.8783 20.2307C16.0351 20.3106 16.1626 20.4381 16.2425 20.5949C16.3334 20.7732 16.3334 21.0065 16.3334 21.4732V25.4732C16.3334 25.9399 16.3334 26.1733 16.2425 26.3515C16.1626 26.5084 16.0351 26.6358 15.8783 26.7157C15.7001 26.8066 15.4667 26.8066 15 26.8066H11C10.5333 26.8066 10.3 26.8066 10.1217 26.7157C9.96489 26.6358 9.83741 26.5084 9.75751 26.3515C9.66669 26.1733 9.66669 25.9399 9.66669 25.4732V21.4732Z" stroke="white" stroke-width="1.5"/>
<path d="M19.6667 11.4732C19.6667 11.0065 19.6667 10.7732 19.7575 10.5949C19.8374 10.4381 19.9649 10.3106 20.1217 10.2307C20.3 10.1399 20.5333 10.1399 21 10.1399H25C25.4667 10.1399 25.7001 10.1399 25.8783 10.2307C26.0351 10.3106 26.1626 10.4381 26.2425 10.5949C26.3334 10.7732 26.3334 11.0065 26.3334 11.4732V15.4732C26.3334 15.9399 26.3334 16.1733 26.2425 16.3516C26.1626 16.5084 26.0351 16.6358 25.8783 16.7157C25.7001 16.8066 25.4667 16.8066 25 16.8066H21C20.5333 16.8066 20.3 16.8066 20.1217 16.7157C19.9649 16.6358 19.8374 16.5084 19.7575 16.3516C19.6667 16.1733 19.6667 15.9399 19.6667 15.4732V11.4732Z" stroke="white" stroke-width="1.5"/>
<path d="M19.6667 21.4732C19.6667 21.0065 19.6667 20.7732 19.7575 20.5949C19.8374 20.4381 19.9649 20.3106 20.1217 20.2307C20.3 20.1399 20.5333 20.1399 21 20.1399H25C25.4667 20.1399 25.7001 20.1399 25.8783 20.2307C26.0351 20.3106 26.1626 20.4381 26.2425 20.5949C26.3334 20.7732 26.3334 21.0065 26.3334 21.4732V25.4732C26.3334 25.9399 26.3334 26.1733 26.2425 26.3515C26.1626 26.5084 26.0351 26.6358 25.8783 26.7157C25.7001 26.8066 25.4667 26.8066 25 26.8066H21C20.5333 26.8066 20.3 26.8066 20.1217 26.7157C19.9649 26.6358 19.8374 26.5084 19.7575 26.3515C19.6667 26.1733 19.6667 25.9399 19.6667 25.4732V21.4732Z" stroke="white" stroke-width="1.5"/>
</svg>
