<svg width="19" height="19" viewBox="0 0 19 19" fill="none" xmlns="http://www.w3.org/2000/svg">
<path d="M16.4339 18.1747C16.922 18.6629 17.7135 18.6629 18.2017 18.1747C18.6898 17.6866 18.6898 16.8951 18.2017 16.407L16.4339 18.1747ZM13.3086 8.09346C13.3086 10.9588 10.9857 13.2816 8.12037 13.2816V15.7816C12.3664 15.7816 15.8086 12.3395 15.8086 8.09346H13.3086ZM8.12037 13.2816C5.25502 13.2816 2.93219 10.9588 2.93219 8.09346H0.43219C0.43219 12.3395 3.87431 15.7816 8.12037 15.7816V13.2816ZM2.93219 8.09346C2.93219 5.2281 5.25502 2.90527 8.12037 2.90527V0.405273C3.87431 0.405273 0.43219 3.84739 0.43219 8.09346H2.93219ZM8.12037 2.90527C10.9857 2.90527 13.3086 5.2281 13.3086 8.09346H15.8086C15.8086 3.84739 12.3664 0.405273 8.12037 0.405273V2.90527ZM11.8352 13.576L16.4339 18.1747L18.2017 16.407L13.603 11.8083L11.8352 13.576Z" fill="white"/>
</svg>
