<svg width="115" height="36" viewBox="0 0 115 36" fill="none" xmlns="http://www.w3.org/2000/svg">
<rect x="0.743164" y="0.795166" width="114.257" height="34.3558" rx="17" fill="#DEFFF9"/>
<path d="M20.8293 13.6672C20.6764 14.4677 19.9036 14.9926 19.1032 14.8398C18.3027 14.6869 17.7778 13.9141 17.9306 13.1137C18.0835 12.3132 18.8563 11.7883 19.6567 11.9411C20.4571 12.094 20.9821 12.8668 20.8293 13.6672Z" fill="#00C29F"/>
<path d="M14.7603 26.9018C12.4173 26.084 11.1721 23.5195 11.999 21.1506C12.2238 20.5064 12.3636 20.1346 12.5795 19.4873C12.698 19.1267 13.6595 17.5073 14.3095 17.0652C15.3522 16.3561 15.7444 16.2929 16.7529 16.1231C17.9674 15.9185 19.4501 16.4336 20.5261 15.9755C21.2641 15.6629 21.84 15.0476 22.1055 14.287C22.1308 14.2145 22.152 14.146 22.1697 14.0777C22.1823 14.0321 22.193 13.986 22.2031 13.9396C22.2134 13.8926 22.2225 13.8452 22.2302 13.7979C22.2479 13.6872 22.2593 13.577 22.2642 13.47C22.3069 12.5203 21.8786 11.6201 21.1189 11.063C21.0339 11.0005 20.942 10.9404 20.8447 10.8859C20.8034 10.8626 20.7612 10.8403 20.7185 10.8193C20.6764 10.7984 20.6341 10.7782 20.5905 10.7596C20.5268 10.7312 20.4607 10.7054 20.3896 10.6806C20.3184 10.6557 20.2501 10.6346 20.1825 10.6172C20.1374 10.6048 20.0917 10.5944 20.0458 10.5845C19.9993 10.5744 19.9523 10.5655 19.9055 10.5581C19.8703 10.5526 19.8348 10.5478 19.8005 10.5433C19.7662 10.5389 19.7315 10.5356 19.6978 10.5334C19.6643 10.5306 19.6314 10.528 19.5984 10.5275C19.5306 10.5243 19.4679 10.5236 19.407 10.5256C18.4503 10.5486 17.5472 11.0764 17.0518 11.903L17.0507 11.906L17.0491 11.9089C17.0372 11.9273 17.0237 11.9506 17.0095 11.9758C16.9861 12.0175 16.9638 12.0603 16.9426 12.1035C16.9217 12.1461 16.9013 12.1889 16.8825 12.2329C16.8758 12.2484 16.8693 12.2632 16.8632 12.2788C16.6331 12.5506 16.255 12.6552 15.9217 12.5389C15.5197 12.3985 15.2836 11.99 15.3594 11.5673C15.4212 11.4214 15.492 11.2765 15.5688 11.1379L15.5746 11.129C16.6517 9.20159 18.9313 8.32563 20.9928 9.04517C22.1237 9.43986 23.0328 10.2604 23.5535 11.3549C24.0749 12.4495 24.1418 13.6817 23.7428 14.825L20.5095 24.0885C19.6827 26.4574 17.1033 27.7196 14.7603 26.9018Z" fill="#00C29F"/>
<path d="M34.36 23.6651C33.7627 23.6651 33.1867 23.6011 32.632 23.4731C32.0773 23.3558 31.5867 23.1638 31.16 22.8971C30.7333 22.6198 30.3973 22.2731 30.152 21.8571C29.9067 21.4305 29.784 20.9238 29.784 20.3371C29.784 20.2731 29.784 20.2145 29.784 20.1611C29.7947 20.0971 29.8 20.0438 29.8 20.0011H31.592C31.592 20.0331 31.5867 20.0811 31.576 20.1451C31.576 20.2091 31.576 20.2625 31.576 20.3051C31.576 20.6998 31.6933 21.0358 31.928 21.3131C32.1627 21.5905 32.488 21.7985 32.904 21.9371C33.3307 22.0758 33.816 22.1451 34.36 22.1451C34.6587 22.1451 34.9467 22.1291 35.224 22.0971C35.5013 22.0545 35.752 21.9958 35.976 21.9211C36.2107 21.8358 36.4133 21.7345 36.584 21.6171C36.7547 21.4891 36.888 21.3398 36.984 21.1691C37.08 20.9985 37.128 20.8011 37.128 20.5771C37.128 20.2358 37.0267 19.9531 36.824 19.7291C36.632 19.5051 36.3653 19.3185 36.024 19.1691C35.6933 19.0198 35.3147 18.8865 34.888 18.7691C34.472 18.6518 34.04 18.5345 33.592 18.4171C33.144 18.2998 32.7067 18.1611 32.28 18.0011C31.864 17.8411 31.4853 17.6491 31.144 17.4251C30.8133 17.1905 30.5467 16.9025 30.344 16.5611C30.152 16.2091 30.056 15.7825 30.056 15.2811C30.056 14.8011 30.1573 14.3745 30.36 14.0011C30.5627 13.6278 30.856 13.3185 31.24 13.0731C31.624 12.8171 32.0827 12.6251 32.616 12.4971C33.1493 12.3691 33.752 12.3051 34.424 12.3051C35 12.3051 35.544 12.3691 36.056 12.4971C36.568 12.6145 37.016 12.8011 37.4 13.0571C37.784 13.3131 38.0827 13.6385 38.296 14.0331C38.52 14.4278 38.632 14.8971 38.632 15.4411V15.6331H36.856V15.4251C36.856 15.0838 36.7547 14.7958 36.552 14.5611C36.3493 14.3265 36.0667 14.1451 35.704 14.0171C35.3413 13.8891 34.92 13.8251 34.44 13.8251C33.8747 13.8251 33.4 13.8838 33.016 14.0011C32.632 14.1078 32.3387 14.2625 32.136 14.4651C31.944 14.6571 31.848 14.8918 31.848 15.1691C31.848 15.4785 31.9493 15.7345 32.152 15.9371C32.3547 16.1291 32.6213 16.2945 32.952 16.4331C33.2933 16.5718 33.672 16.6998 34.088 16.8171C34.5147 16.9238 34.9467 17.0411 35.384 17.1691C35.832 17.2865 36.264 17.4251 36.68 17.5851C37.1067 17.7451 37.4853 17.9425 37.816 18.1771C38.1573 18.4118 38.4293 18.7051 38.632 19.0571C38.8347 19.3985 38.936 19.8198 38.936 20.3211C38.936 21.1105 38.7387 21.7558 38.344 22.2571C37.9493 22.7478 37.4053 23.1051 36.712 23.3291C36.0293 23.5531 35.2453 23.6651 34.36 23.6651ZM43.2708 23.6651C42.4601 23.6651 41.8041 23.4518 41.3028 23.0251C40.8014 22.5878 40.5508 21.8465 40.5508 20.8011V15.0571H42.2148V20.5451C42.2148 20.8651 42.2521 21.1318 42.3268 21.3451C42.4121 21.5585 42.5294 21.7291 42.6788 21.8571C42.8281 21.9851 43.0041 22.0758 43.2068 22.1291C43.4094 22.1825 43.6334 22.2091 43.8788 22.2091C44.2628 22.2091 44.6094 22.1185 44.9188 21.9371C45.2388 21.7451 45.4948 21.4838 45.6868 21.1531C45.8788 20.8118 45.9748 20.4225 45.9748 19.9851V15.0571H47.6388V23.4731H46.2788L46.1348 22.2731H46.0228C45.8201 22.5825 45.5801 22.8385 45.3028 23.0411C45.0254 23.2438 44.7161 23.3985 44.3748 23.5051C44.0441 23.6118 43.6761 23.6651 43.2708 23.6651ZM49.627 26.2411V15.0571H50.987L51.131 16.2091H51.243C51.531 15.7611 51.899 15.4251 52.347 15.2011C52.795 14.9771 53.2963 14.8651 53.851 14.8651C54.5443 14.8651 55.1363 15.0198 55.627 15.3291C56.1283 15.6385 56.5123 16.1185 56.779 16.7691C57.0457 17.4198 57.179 18.2625 57.179 19.2971C57.179 20.2998 57.0403 21.1265 56.763 21.7771C56.4963 22.4171 56.1177 22.8918 55.627 23.2011C55.1363 23.5105 54.571 23.6651 53.931 23.6651C53.5577 23.6651 53.211 23.6225 52.891 23.5371C52.571 23.4518 52.283 23.3185 52.027 23.1371C51.7817 22.9558 51.5683 22.7265 51.387 22.4491H51.291V26.2411H49.627ZM53.355 22.2251C53.8563 22.2251 54.2617 22.1291 54.571 21.9371C54.8803 21.7345 55.1043 21.4251 55.243 21.0091C55.3923 20.5931 55.467 20.0651 55.467 19.4251V19.1371C55.467 18.4651 55.3923 17.9211 55.243 17.5051C55.0937 17.0891 54.8643 16.7851 54.555 16.5931C54.2563 16.4011 53.867 16.3051 53.387 16.3051C52.8963 16.3051 52.4963 16.4171 52.187 16.6411C51.8777 16.8545 51.6483 17.1745 51.499 17.6011C51.3603 18.0278 51.291 18.5451 51.291 19.1531V19.3771C51.291 19.8785 51.339 20.3105 51.435 20.6731C51.531 21.0358 51.6697 21.3345 51.851 21.5691C52.0323 21.7931 52.251 21.9585 52.507 22.0651C52.763 22.1718 53.0457 22.2251 53.355 22.2251ZM62.2206 23.6651C61.3566 23.6651 60.6313 23.5105 60.0446 23.2011C59.4686 22.8811 59.0313 22.3958 58.7326 21.7451C58.434 21.0945 58.2846 20.2678 58.2846 19.2651C58.2846 18.2518 58.434 17.4251 58.7326 16.7851C59.0313 16.1345 59.474 15.6545 60.0606 15.3451C60.6473 15.0251 61.378 14.8651 62.2526 14.8651C63.0526 14.8651 63.7193 15.0198 64.2526 15.3291C64.7966 15.6278 65.2073 16.0865 65.4846 16.7051C65.762 17.3238 65.9006 18.1025 65.9006 19.0411V19.6811H59.9966C60.018 20.2785 60.1086 20.7798 60.2686 21.1851C60.4286 21.5798 60.6686 21.8731 60.9886 22.0651C61.3193 22.2465 61.7353 22.3371 62.2366 22.3371C62.546 22.3371 62.8233 22.2998 63.0686 22.2251C63.314 22.1398 63.522 22.0225 63.6926 21.8731C63.8633 21.7131 63.9966 21.5265 64.0926 21.3131C64.1886 21.0891 64.2366 20.8385 64.2366 20.5611H65.8686C65.8686 21.0625 65.7833 21.5051 65.6126 21.8891C65.442 22.2731 65.1913 22.5985 64.8606 22.8651C64.5406 23.1211 64.1566 23.3185 63.7086 23.4571C63.2606 23.5958 62.7646 23.6651 62.2206 23.6651ZM60.0286 18.4651H64.1566C64.1566 18.0491 64.1086 17.7025 64.0126 17.4251C63.9273 17.1371 63.7993 16.9025 63.6286 16.7211C63.458 16.5398 63.2553 16.4118 63.0206 16.3371C62.786 16.2518 62.5193 16.2091 62.2206 16.2091C61.7726 16.2091 61.3886 16.2891 61.0686 16.4491C60.7593 16.6091 60.5193 16.8598 60.3486 17.2011C60.178 17.5318 60.0713 17.9531 60.0286 18.4651ZM67.432 23.4731V15.0571H68.808L68.952 16.4171H69.048C69.144 16.1505 69.2667 15.8998 69.416 15.6651C69.576 15.4305 69.7787 15.2385 70.024 15.0891C70.28 14.9398 70.5893 14.8651 70.952 14.8651C71.1227 14.8651 71.272 14.8811 71.4 14.9131C71.5387 14.9451 71.6453 14.9718 71.72 14.9931V16.5611H71.16C70.8187 16.5611 70.5147 16.6145 70.248 16.7211C69.992 16.8278 69.7733 16.9878 69.592 17.2011C69.4213 17.4038 69.2933 17.6545 69.208 17.9531C69.1333 18.2518 69.096 18.5878 69.096 18.9611V23.4731H67.432ZM72.8033 23.4731V11.9051H74.4673V16.0651H74.5793C74.7819 15.8091 75.0113 15.5958 75.2673 15.4251C75.5233 15.2438 75.8113 15.1051 76.1313 15.0091C76.4513 14.9131 76.8033 14.8651 77.1873 14.8651C77.7206 14.8651 78.1899 14.9611 78.5953 15.1531C79.0006 15.3345 79.3153 15.6331 79.5393 16.0491C79.7739 16.4651 79.8913 17.0251 79.8913 17.7291V23.4731H78.2273V17.9851C78.2273 17.6651 78.1846 17.3985 78.0993 17.1851C78.0246 16.9718 77.9126 16.8011 77.7633 16.6731C77.6139 16.5451 77.4379 16.4545 77.2353 16.4011C77.0326 16.3478 76.8086 16.3211 76.5633 16.3211C76.1793 16.3211 75.8273 16.4118 75.5073 16.5931C75.1979 16.7745 74.9473 17.0305 74.7553 17.3611C74.5633 17.6918 74.4673 18.0865 74.4673 18.5451V23.4731H72.8033ZM85.3991 23.6651C84.5245 23.6651 83.7831 23.5105 83.1751 23.2011C82.5778 22.8811 82.1245 22.3958 81.8151 21.7451C81.5165 21.0945 81.3671 20.2678 81.3671 19.2651C81.3671 18.2518 81.5165 17.4251 81.8151 16.7851C82.1245 16.1345 82.5778 15.6545 83.1751 15.3451C83.7831 15.0251 84.5245 14.8651 85.3991 14.8651C86.2951 14.8651 87.0418 15.0251 87.6391 15.3451C88.2365 15.6545 88.6845 16.1345 88.9831 16.7851C89.2925 17.4251 89.4471 18.2518 89.4471 19.2651C89.4471 20.2678 89.2925 21.0945 88.9831 21.7451C88.6845 22.3958 88.2365 22.8811 87.6391 23.2011C87.0418 23.5105 86.2951 23.6651 85.3991 23.6651ZM85.3991 22.2891C85.9325 22.2891 86.3698 22.1878 86.7111 21.9851C87.0525 21.7718 87.3031 21.4518 87.4631 21.0251C87.6338 20.5985 87.7191 20.0598 87.7191 19.4091V19.1211C87.7191 18.4705 87.6338 17.9318 87.4631 17.5051C87.3031 17.0785 87.0525 16.7638 86.7111 16.5611C86.3698 16.3478 85.9325 16.2411 85.3991 16.2411C84.8765 16.2411 84.4445 16.3478 84.1031 16.5611C83.7618 16.7638 83.5058 17.0785 83.3351 17.5051C83.1751 17.9318 83.0951 18.4705 83.0951 19.1211V19.4091C83.0951 20.0598 83.1751 20.5985 83.3351 21.0251C83.5058 21.4518 83.7618 21.7718 84.1031 21.9851C84.4445 22.1878 84.8765 22.2891 85.3991 22.2891ZM94.0873 23.6651C93.5006 23.6651 92.9833 23.6011 92.5353 23.4731C92.0873 23.3451 91.7139 23.1691 91.4153 22.9451C91.1166 22.7211 90.8873 22.4545 90.7273 22.1451C90.5779 21.8251 90.5033 21.4731 90.5033 21.0891C90.5033 21.0358 90.5033 20.9878 90.5033 20.9451C90.5139 20.9025 90.5193 20.8651 90.5193 20.8331H92.1673C92.1673 20.8651 92.1673 20.8971 92.1673 20.9291C92.1673 20.9505 92.1673 20.9771 92.1673 21.0091C92.1673 21.3398 92.2579 21.6065 92.4393 21.8091C92.6206 22.0011 92.8606 22.1398 93.1593 22.2251C93.4686 22.2998 93.8046 22.3371 94.1673 22.3371C94.4873 22.3371 94.7806 22.2998 95.0473 22.2251C95.3246 22.1398 95.5486 22.0171 95.7193 21.8571C95.9006 21.6971 95.9913 21.4945 95.9913 21.2491C95.9913 20.9291 95.8793 20.6838 95.6553 20.5131C95.4313 20.3425 95.1379 20.2091 94.7753 20.1131C94.4126 20.0065 94.0339 19.8945 93.6393 19.7771C93.2873 19.6811 92.9353 19.5798 92.5833 19.4731C92.2419 19.3558 91.9326 19.2065 91.6553 19.0251C91.3779 18.8438 91.1539 18.6145 90.9833 18.3371C90.8126 18.0598 90.7273 17.7131 90.7273 17.2971C90.7273 16.9025 90.8126 16.5558 90.9833 16.2571C91.1539 15.9585 91.3886 15.7078 91.6873 15.5051C91.9966 15.3025 92.3593 15.1478 92.7753 15.0411C93.2019 14.9345 93.6659 14.8811 94.1673 14.8811C94.6899 14.8811 95.1539 14.9398 95.5593 15.0571C95.9646 15.1638 96.3059 15.3185 96.5833 15.5211C96.8713 15.7238 97.0899 15.9691 97.2393 16.2571C97.3886 16.5345 97.4633 16.8331 97.4633 17.1531C97.4633 17.2171 97.4579 17.2865 97.4473 17.3611C97.4473 17.4251 97.4473 17.4678 97.4473 17.4891H95.8153V17.3451C95.8153 17.1318 95.7566 16.9398 95.6393 16.7691C95.5219 16.5985 95.3353 16.4598 95.0793 16.3531C94.8339 16.2465 94.5033 16.1931 94.0873 16.1931C93.8099 16.1931 93.5646 16.2198 93.3513 16.2731C93.1379 16.3158 92.9619 16.3798 92.8233 16.4651C92.6846 16.5505 92.5779 16.6518 92.5033 16.7691C92.4393 16.8865 92.4073 17.0198 92.4073 17.1691C92.4073 17.4145 92.4926 17.6065 92.6633 17.7451C92.8446 17.8731 93.0793 17.9851 93.3673 18.0811C93.6553 18.1665 93.9646 18.2625 94.2953 18.3691C94.6793 18.4758 95.0686 18.5878 95.4633 18.7051C95.8579 18.8118 96.2206 18.9505 96.5513 19.1211C96.8926 19.2918 97.1646 19.5265 97.3673 19.8251C97.5806 20.1238 97.6873 20.5238 97.6873 21.0251C97.6873 21.4838 97.5966 21.8838 97.4153 22.2251C97.2339 22.5665 96.9779 22.8438 96.6473 23.0571C96.3273 23.2598 95.9486 23.4091 95.5113 23.5051C95.0739 23.6118 94.5993 23.6651 94.0873 23.6651ZM101.31 23.6651C100.83 23.6651 100.451 23.5745 100.174 23.3931C99.9072 23.2011 99.7152 22.9611 99.5979 22.6731C99.4912 22.3745 99.4379 22.0598 99.4379 21.7291V16.4331H98.3819V15.0571H99.4699L99.7739 12.7051H101.102V15.0571H102.622V16.4331H101.102V21.5371C101.102 21.7825 101.155 21.9691 101.262 22.0971C101.369 22.2251 101.545 22.2891 101.79 22.2891H102.622V23.4091C102.515 23.4518 102.382 23.4891 102.222 23.5211C102.073 23.5638 101.918 23.5958 101.758 23.6171C101.598 23.6491 101.449 23.6651 101.31 23.6651Z" fill="#00C29F"/>
</svg>
